<svg version="1.1" id="Layer_1" xmlns="http://www.w3.org/2000/svg" x="0" y="0" viewBox="0 0 64 64" xml:space="preserve"><style>.st0{fill:#fff;stroke:#171c28;stroke-linecap:round;stroke-linejoin:round;stroke-miterlimit:10}.st2{fill:#171c28}.st4,.st7{fill:none;stroke:#171c28;stroke-linecap:round;stroke-linejoin:round;stroke-miterlimit:10}.st7{fill:#c74634}</style><linearGradient id="SVGID_1_" gradientUnits="userSpaceOnUse" x1="0" y1="-1061.233" x2="0" y2="-1062.233"><stop offset="0" stop-color="#656565"/><stop offset=".618" stop-color="#1b1b1b"/><stop offset=".629" stop-color="#545454"/><stop offset=".983" stop-color="#3e3e3e"/></linearGradient><path id="XMLID_1476_" class="st4" d="M41.1 31.5V8.8"/><path id="XMLID_1386_" class="st4" d="M36 55.3H15.4c-2.4 0-4.4-2-4.4-4.4V12.8c0-2.3 1.8-4.1 4.1-4.1h32.5"/><path id="XMLID_1385_" class="st4" d="M46.5 30.5V10.7c0-1.2 1-2.2 2.2-2.2h.5c1.3 0 2.3 1 2.3 2.3v20.7h-2.4"/><path id="XMLID_1283_" class="st4" d="M15.2 14.9h10.3"/><path id="XMLID_1282_" class="st0" d="M15.2 33.3h21.6"/><path id="XMLID_1279_" class="st0" d="M15.2 37h19.1"/><path id="XMLID_1278_" class="st0" d="M15.2 40.8h16.2"/><path id="XMLID_1277_" class="st0" d="M15.2 44.5h14.1"/><path id="XMLID_1276_" class="st0" d="M15.2 48.3h11.2"/><path id="XMLID_1275_" class="st4" d="M15.2 18.6h7.7"/><path id="XMLID_1274_" class="st4" d="M24.8 18.6H37"/><path id="XMLID_1273_" class="st7" d="M14.7 22.4H37v7H14.7z"/><g><path class="st0" d="M41.2 47l-3 6 3.2-.4 1.3 3.4 3.5-7-3.1-.7zM46.9 49l3.5 7 1.4-3.4 3.1.4-3-6-2.1 1.2z"/><circle class="st0" cx="46.4" cy="41" r="8"/><circle class="st2" cx="46.4" cy="41" r="4"/></g></svg>