<svg id="Layer_1" data-name="Layer 1" xmlns="http://www.w3.org/2000/svg" viewBox="0 0 192 192"><defs><style>.cls-1{fill:#231f20}.cls-2{fill:#f7a51e}</style></defs><path class="cls-1" d="M85.07 112.47l-1.38 6.7s-.08.69-1 .3c0 0-4.72-1.67-6.09-1.89a25.47 25.47 0 00-5.43-.69s-4.94-.29-8.37 1.64a10.88 10.88 0 00-5 5.67s-2.53 6.62 1.16 12.57c0 0 3.06 5.47 11.47 5.21a21.21 21.21 0 006.52-1s.9-.24.78-1.63v-5.19s.07-1-1.16-1h-7a.77.77 0 01-.85-.81l-1.16-5.5h20.25v18.08s-6.69 3.91-18.16 3.91c0 0-15.76.94-22.12-10a19.49 19.49 0 01-.22-18.39s3.13-6.73 12.72-9.37a41.46 41.46 0 0110-1.33 42 42 0 0115.08 2.75m6.82 17.38a18.37 18.37 0 018.63-16.11c2.84-1.81 8.25-4 15.73-4a37 37 0 0113 2.32l-1.29 6.84s-.25.85-.94.42a22.52 22.52 0 00-9.66-2.35s-6.62-.43-10.74 4a12.89 12.89 0 00-3 8.85s.09 7 5.59 10a16.5 16.5 0 008.07 2 23.17 23.17 0 0010.57-2.84s.69-.42.85.27l1.42 7A34.89 34.89 0 01116 149s-8.76.26-15.88-4.21a18.37 18.37 0 01-8.21-14.9m67.57 10.9s-1.8 1.23-5.58 1.23h-8.33V131.4h8.88s3.14 0 4.92 1.11a4.54 4.54 0 012.37 4 4.47 4.47 0 01-2.26 4.32m-1.07-16a8.76 8.76 0 01-5.11 1.17h-7.73v-9.45h8.25s3 0 4.55 1a4.07 4.07 0 012.19 3.53 4.36 4.36 0 01-2.15 3.78m12 6.79c-2.76-2.58-7.75-3.35-7.75-3.35a22.64 22.64 0 004.65-2 7.28 7.28 0 003.6-6.1 7.55 7.55 0 00-2.48-6c-4.29-3.93-13.75-3.7-13.75-3.7h-19.46a.67.67 0 00-.74.58v36.45c0 .69.6.61.6.61h19.68c7.38 0 11.38-1.91 11.38-1.91 7.26-3 6.66-8.58 6.66-8.58a7.58 7.58 0 00-2.4-6"/><path class="cls-2" d="M158.24 34.26s-14.05 9.39-38.3 17.74c-15.13 5.21-33.11 7.58-33.1 7.59a17.13 17.13 0 01-10.49 7.27c3.38.08 5.7.31 5.7.31 5.36.72 4.21 2.94 4.21 2.94a24.13 24.13 0 013.83 1.46c3.45 1.53-.71 5.48-.71 5.48A2 2 0 0088 74.93a7.29 7.29 0 00-2.82-.14A20.9 20.9 0 0078.79 77a64.8 64.8 0 00-6.93 4.09c-3 1.85-6 4-6 4-4.41-8.43.12-17 .7-18C50 63.94 49.94 46.64 49.94 46.64c0-16.24 10.9-32.13 10.94-32.13a54.52 54.52 0 00-12.39 2.15l-5.55 16.7.22-15.08a29.26 29.26 0 00-6 2.78L33 36.19l-.36-12.62a15 15 0 00-4.16 3.75L25.59 40l-2.5-4.39c-12.46 21.88 1.17 53.84 1.17 53.84h13.63L22.82 98.6a30.51 30.51 0 00-2.22 8.5l6.86-1.32-6.67 6.3a25 25 0 001.45 5.38l6.67-5.81-5.25 8.81a31.88 31.88 0 006.25 8.18A54.92 54.92 0 0157 92.07v10.44c53.86-5.71 73.9-19.6 84.17-29.51l-7.44-2.34 12.28-3a25 25 0 003.71-5.1l-12.07-.92 14.16-3.27a35.94 35.94 0 002.78-5.8l-15.59.91 17-7.22a82.27 82.27 0 002.26-12"/><path class="cls-1" d="M56.32 177.34v-.73a2.82 2.82 0 00.85.12c1 0 1.45-.8 1.74-1.73l.26-.85-3.17-8.46h1l2.69 7.25 2.31-7.25h.92l-3.29 9.7c-.48 1.42-1.1 2.1-2.44 2.1a2.18 2.18 0 01-.89-.15m7.46-7.34c0-2.28 1.06-4.4 3.57-4.4s3.55 1.93 3.55 4.4c0 2.27-1.09 4.38-3.57 4.38s-3.55-1.93-3.55-4.38m6.24 0c0-1.64-.49-3.63-2.64-3.63s-2.61 2-2.61 3.63.49 3.62 2.63 3.62S70 171.54 70 170m2.78 1.31v-5.62h.89v5.43c0 1.46.44 2.43 2.07 2.43a4.06 4.06 0 002.15-.7v-7.16h.91v8.51h-.91v-.68a4 4 0 01-2.38.82c-2.05 0-2.73-1.3-2.73-3m8.68-5.65h.91v.9a2.62 2.62 0 012.1-1 3 3 0 01.77.12v.86a3.53 3.53 0 00-.87-.15 2.54 2.54 0 00-2 1v6.86h-.91zm9.2 8.11v-11.5h.9v4.09a3.11 3.11 0 012.12-.83c2.5 0 3.54 1.93 3.54 4.37s-1.49 4.41-4 4.41a6.64 6.64 0 01-2.6-.54m5.63-3.8c0-1.93-.67-3.58-2.74-3.58a3.1 3.1 0 00-2 .71v6.18a4.87 4.87 0 001.73.28c2 0 3-1.69 3-3.59m2.18 2c0-1.62 1.35-2.59 3.7-2.59h1v-1.23c0-1.35-.6-1.88-2-1.88a4.4 4.4 0 00-2 .53v-.81a5.13 5.13 0 012.19-.5c1.52 0 2.76.6 2.76 2.39v4.77c0 .57.28.85.73.85h.34v.69a2.33 2.33 0 01-.67.11 1.19 1.19 0 01-1.21-.92 3.16 3.16 0 01-2.21.92 2.34 2.34 0 01-2.63-2.33m4.73.77v-2.63h-1c-1.79 0-2.83.62-2.83 1.81a1.62 1.62 0 001.81 1.65 2.92 2.92 0 002-.79m3.6-7.12h.91v.69a4 4 0 012.37-.82c2.08 0 2.76 1.3 2.76 3v5.62h-.91v-5.46c0-1.43-.45-2.4-2.08-2.4a4.19 4.19 0 00-2.14.7v7.16h-.91zm8.62-3.39h.92v7.2l3.63-3.81h1.1l-3.69 3.81 2.74 3.28c.37.45.6.68 1.16.68v.76H121a2.08 2.08 0 01-1.68-1l-3-3.67v4.62h-.92zm10.19 3.39h1.36v-1.11a2.13 2.13 0 012.34-2.42 3.82 3.82 0 01.91.12v.8a2.16 2.16 0 00-.75-.13c-1.06 0-1.58.45-1.58 1.67v1.07h2v.74h-2v7.77h-.92v-7.77h-1.36zm5.14 4.31c0-2.28 1.07-4.4 3.57-4.4s3.55 1.93 3.55 4.4c0 2.27-1.09 4.38-3.57 4.38s-3.55-1.93-3.55-4.38m6.19 0c0-1.64-.49-3.63-2.64-3.63s-2.61 2-2.61 3.63.49 3.62 2.63 3.62 2.62-2 2.62-3.62m2.88-4.31h.91v.9a2.65 2.65 0 012.1-1 2.88 2.88 0 01.77.12v.86a3.35 3.35 0 00-.85-.15 2.59 2.59 0 00-2 1v6.86h-.91zm9.21-3.39h.92v11.9h-.92zm3.46.79a.66.66 0 11.65.68.66.66 0 01-.65-.68m.2 2.61h.9v8.5h-.9zm2.61-.01h1.37v-1.11a2.13 2.13 0 012.35-2.42 3.8 3.8 0 01.9.12v.8a2.16 2.16 0 00-.75-.13c-1.07 0-1.58.45-1.58 1.67v1.07h2v.74h-2v7.77h-.92v-7.77h-1.37zm5.14 4.31c0-2.65 1.4-4.42 3.67-4.42s3 1.91 3 3.58v.6h-5.76v.24c0 2 .89 3.62 3 3.62a4.87 4.87 0 002.29-.53v.81a5.69 5.69 0 01-2.31.49c-2.61 0-3.93-1.75-3.93-4.36m1-1h4.79v-.09c0-1.34-.73-2.6-2.13-2.6-1.07 0-2.38.53-2.66 2.69"/></svg>