<svg version="1.1" id="Layer_1" xmlns="http://www.w3.org/2000/svg" x="0" y="0" viewBox="0 0 64 64" xml:space="preserve"><style>.st0{fill:#fff;stroke:#171c28;stroke-linecap:round;stroke-linejoin:round;stroke-miterlimit:10}.st2{fill:#171c28}.st4,.st7{fill:none;stroke:#171c28;stroke-linecap:round;stroke-linejoin:round;stroke-miterlimit:10}.st7{fill:#c74634}.st52{fill:#fed65c}</style><linearGradient id="SVGID_1_" gradientUnits="userSpaceOnUse" x1="-1095.846" y1="-991.885" x2="-1095.846" y2="-992.885"><stop offset="0" stop-color="#656565"/><stop offset=".618" stop-color="#1b1b1b"/><stop offset=".629" stop-color="#545454"/><stop offset=".983" stop-color="#3e3e3e"/></linearGradient><path class="st0" d="M28.3 23.5v-8.9c0-4.9 4-8.9 8.9-8.9s8.9 4 8.9 8.9v8.9"/><path class="st0" d="M51.1 19l2 35.5c.1 1.3-.9 2.3-2.2 2.3H15.5c-1.3 0-2.3-1.1-2.2-2.3l2-35.5c.1-1.2 1-2.1 2.2-2.1h31.3c1.2 0 2.2.9 2.3 2.1z"/><path class="st4" d="M24.3 23.5v-8.9c0-4.9 4-8.9 8.9-8.9s8.9 4 8.9 8.9v8.9"/><path class="st2" d="M26.2 25h-3.9c-.1 0-.1 0-.1-.1v-1.3c0-.1 0-.1.1-.1h3.9c.1 0 .1 0 .1.1v1.3s0 .1-.1.1zM44 25h-3.9c-.1 0-.1 0-.1-.1v-1.3c0-.1 0-.1.1-.1H44c.1 0 .1 0 .1.1v1.3s0 .1-.1.1z"/><path class="st0" d="M29.5 16.9v13.2"/><path class="st52" d="M32.6 40.5h-6.1v-7.9l3-2.5 3.1 2.5"/><path class="st7" d="M32.6 38.3v2.2h-6.1v-7.9l3-2.5 3.1 2.5v2.9"/><path class="st2" d="M51.6 53H15l.4-4.2h35.9z"/></svg>