<svg version="1.1" id="Layer_1" xmlns="http://www.w3.org/2000/svg" x="0" y="0" viewBox="0 0 64 64" xml:space="preserve"><style>.st1{fill:#fff}.st2{fill:#171c28}.st8{fill:#c74634}</style><linearGradient id="SVGID_1_" gradientUnits="userSpaceOnUse" x1="-584.846" y1="-1132.748" x2="-584.846" y2="-1133.748"><stop offset="0" stop-color="#656565"/><stop offset=".618" stop-color="#1b1b1b"/><stop offset=".629" stop-color="#545454"/><stop offset=".983" stop-color="#3e3e3e"/></linearGradient><path class="st1" d="M15.3 14.5h33.4v35H15.3z"/><path class="st2" d="M28.7 9.1h6.5v1.5h-6.5z"/><path class="st1" d="M36.5 54.2c0 .8-.8 1.5-1.7 1.5h-5.5c-.9 0-1.7-.7-1.7-1.5s.8-1.5 1.7-1.5h5.5c.9 0 1.7.6 1.7 1.5z"/><path class="st2" d="M35 56.8h-6c-1.5 0-2.7-1.2-2.7-2.7 0-1.5 1.2-2.7 2.7-2.7h6c1.5 0 2.7 1.2 2.7 2.7 0 1.5-1.3 2.7-2.7 2.7zm-6-4.4c-1 0-1.8.8-1.8 1.8S28 56 29 56h6c1 0 1.8-.8 1.8-1.8s-.8-1.8-1.8-1.8h-6z"/><path class="st2" d="M44.3 58.5H19.7c-2.3 0-4.1-1.9-4.1-4.1V9.6c0-2.3 1.9-4.1 4.1-4.1h24.5c2.3 0 4.1 1.9 4.1 4.1v44.7c.1 2.3-1.8 4.2-4 4.2zM19.7 6.4c-1.8 0-3.3 1.5-3.3 3.3v44.7c0 1.8 1.5 3.3 3.3 3.3h24.5c1.8 0 3.3-1.5 3.3-3.3V9.6c0-1.8-1.5-3.3-3.3-3.3H19.7z"/><path class="st2" d="M15.8 14.2h32.5v.8H15.8z"/><g><path class="st2" d="M15.8 48.7h32.5v.8H15.8z"/></g><g><path class="st8" d="M25.4 19.8v5.6h-5.6v-.1-.3-.3-.4-.3-.4-.3-.3-.3-.4-.3-.3-.3-.4-.3-.3-.2-.4H25.4zm-2.4.7h-2.1v4h4v-.2-.3-.2-.3-.9-.9-.5-.2-.3c-.8-.2-1.3-.2-1.9-.2zM31.3 20.5V21.3h1.6V22.1H30.5V22.9H32.9v.8h-.8v.7h-.7V24v-.4h-.8v.8h-.7v.7h-.7v-.4-.4h-.8v-.4-.4H30V22.7v-.3-.5h-.8v-.4-.4-.4-.4h-1.6V19.5H30.8v.8c0 .2.2.2.5.2z"/><path class="st8" d="M31.3 20.5v-.4-.4H32.1V20.5h-.8z"/><path class="st8" d="M35.6 22s0 .1 0 0V22.8h.8v-.5-.3H38v.8h-.8v3H36.4v-.2-.4-.3-.3-.3-.3-.6H35.6V25H34.9v-.1-.3-.4-.4-.4H34.1V25.8H35.7v1.6H35v1.5h.7V30.5h.8v.7h-.7V32.8h1.6v-.3-.3-.3-.3-.3-.3-.6h-.8v-2.2h.7v1.5h.7v.7h.7v.7H37.9V32.7H39.5V31.9h-.8v-.7H39.5v-.1-.2-.3-.3-.3-.3-.3-.3-.3h.7v1.5h.7v2.2h-.7V34.1H41.8v-.2-.4-.3-.3-.3-.3-.3-.3-.5-.5-.5-.3V29.6h.8v.8h.7v.7h-.7v2.2h.7v.7h-.7v.7H40.2V35.5H41V36.3H40.2v.8H42.6v1.6H41.8V39.5h1.6v.7H41.8V42.6H42.6V41.8H43.4V42.6H44.1V41.8H44.9V43.4H41.7v.7H41v-.4-.4h-.8v-.7h.8v-.1-.3-.4H39.4v.7h-.8V43.3h1.6v.8h.8V44.9h-1.6v-.4-.4h-.8V44.9H37.8v-.1-.4-.3-.3-.3-.3-.7H37V43.3H36.2v-.1-.3-.4-.4-.4h.7V41h.7v-.3-.2-.3-.2-.3-.2-.3-.2-.3-.2-.3-.2-.3-.7h-.8v-.7h.7v-.4-.4H38.3V37.1H39.1v-.2-.4-.3-.3-.3-.3-.3V34.7H35.9v-.4-.4H35.1V35.5h-.8v-.1-.3-.4H33.5v1.6h-.7v.7h-1.5v.7h-.7v.7h-.7V38v-.4h-.8v.8h-.7V38v-.4h-.8v-.4-.4H30.7v-.4-.4H31.5v-.1-.3-.4h-.7v.8H30v-.2-.2-.4-.4-.4h.7v-.7H31.5v-.1-.3-.4H30.7v.8h-1.5V34.5H28.4v-.1-.3-.4-.4-.4H29.2v-.1-.3-.4h-.8v.8h-1.5v-.4-.4h-1.6v-.7h-.7V31v-.4H23V33h-1.6v-.3-.4-.4-.4-.4-.4-.4-.5H20.6V32.2H19.8v-.1-.3-.4h-.7v-1.5H19.9v-.1-.7h-.8v-.3-.3-.3-.3-.3-.3-.6H19.9V28.3h2.4v-.1-.3-.4-.4-.4H24.6V27.5H23V28.3H24.6v.8H23.8V29.9H25.4v-.7h1.5v.8h.8V30.8H26.1V31.6h2.4v-.4-.4-.4-.4h-.8v-.7h.7v-.7h.7v-.4-.4H29.9v.8h.7v.7h.7v1.5h-.7v-.4-.4H29V31.6H29.8v-.5-.3h.7V31.6h.8v-.5-.3h.7V32.4H34.3V31.6h-.8v-.7H34.3v-.1-.3-.4-.4-.4h-.7v1.6h-1.5v-.4-.4-.4-.4h-.8v-1.5h.7V28.6h.8V27.8H32v-.4-.4H33.6V26.2h-.8v-.4-.3-.4-.3-.4-.3-.4-.3-.4-.3-.4-.3-.4-.3-.3-.4H32v-.7h.7v-.4-.4H33.5V21.4H34.8c.6.6.7.6.8.6zm2.9 11.1v.6H39.3v-.1-.3-.4h-.8v.2c0-.1 0 0 0 0zm-5.8.7s0 .1 0 0v.6h.8v-.1-.3-.4h-.8v.2c0-.1 0 0 0 0zm5.8 4.5v2.1h2.4v-1.1-1.1h-2.2c-.2-.1-.2 0-.2.1z"/><path class="st8" d="M36.3 20.5h-.7v-.4-.4H36.4v.5c-.1.2-.1.2-.1.3zM44.3 19.8v5.6h-5.6v-.1-.3-.3-.4-.3-.4-.3-.3-.3-.4-.3-.3-.3-.4-.3-.3-.3-.3h5.6zm-2.4.7h-2.1v4h4v-.2-.3-.2-.3-.2-.3-.5-.2-.3-.2-.3-.5-.2-.3h-1.9zM27.6 20.5V21.3H26.8v-.1-.7h.8z"/><path class="st8" d="M35.6 20.5v.7H34.8v-.1-.7h.5c.1.1.2.1.3.1zM36.3 20.5H37.1V21.3h-.8v-.8zM37.8 20.6s0-.1 0 0c0-.1.1-.1 0 0 .2-.1.3-.1.5-.1H38.6V21.3h-.8v-.5-.2c0 .1 0 0 0 0zM24 21.3v2.2H21.6v-.2-.4-.3-.2-.3-.2-.3-.5h2.2c.1.2.1.2.2.2zM35.6 21.3h.7v.7h-.7v-.7zM42.9 21.3v2.2H40.5v-.2-.4-.3-.2-.3-.2-.3-.2V21.1h2.2c.1.2.1.2.2.2zM29.1 22s0 .1 0 0V22.8H27.5v1.6H26.7v.8h.8V26H25.9v-.1-.2-.3-.3-.3-.3-.3-.3-.3H26.7v-.1-.2-.5H25.9v-.2-.6H29.1zM37.1 27.8v-.7H36.3v-.2-.6h.8v-.7H37.9v-.1-.5-.3-.3-.3-.3-.6H38.7V26.4H39.5V26v-.4H41.1V27.2H37.9V28h-.5c-.2-.2-.2-.2-.3-.2z"/><path class="st8" d="M27.6 24.2h.7v.7h-.7v-.7zM30.5 24.2h.7v.7H30.4v-.2-.2c.1-.1.1-.2.1-.3zM32 24.2H32.8v1.6h-.7V27.4H31.3v-.1-.3-.4h-.7v-.7h.7v-.7h.7v-1zM28.3 24.9h.7V28.1h-.8v-.4-.4H26.6V28.1h1.6v1.5h-.7v-.4-.4H25.9v-.1-.3-.4-.4-.4h-.8v-.7H28.3v-.7-.7-.2zM22.5 25.6V28H21.7v-.1-.3-.4-.4-.4H20.9v-.2-.3V25.6h1.6z"/><path class="st8" d="M25.4 26.4H24.6v-.2-.6H25.4v.8zM42.9 27.1v.7h-.7v.7H40v-.4-.4H41.6v-.6-.6-.2-.3-.3-.4H42.4V26.9h.6c-.2.2-.2.2-.1.2zM30.5 26.4V27.2H29.7V27v-.2-.4h.8z"/><path class="st8" d="M43.6 27.8v-.4-.4h-.8v-.4-.4H44.4V27.8h-.8zM39.2 28.5H38.4v-.1-.3-.4H39.2v.8zM42.9 27.8h.7v.7h.7V30.9H43.5v-.1-.3-.4h-.7v-1c.1-.5.1-.8.1-1.3 0 .1 0 0 0 0zM25.4 31.4V32.2H24.6V32v-.2-.4h.8zM43.6 32.2s-.1 0 0 0H42.8V32v-.6H43.6v.8zM43.6 32.2h.7v5h-.7v-2.9h-.7v-.7H43.7v-.1-.2-.3-.3c0-.1 0-.2-.1-.5 0 .1 0 .1 0 0zM22.5 32.9V35.3h1.6V36.1h2.4v.7h.7V39.2H26.4v-.1-.2-.4-.4-.5h-.8v-.4-.4H24V38.4H23.2v-.1-.2-.4-.4-.5h-.8v-.4-.4h-.8v-.4-.4H20v-.1-.3-.4-.4-.4h.7v-.4-.4H22c.4.1.4.1.5.1zM25.4 33.6H24.6v-.2-.6H25.4v.8zM27.6 32.9V33.7H28.4V34.5h-.8V35.3H26.8v-.1-.2-.4-.4-.5H26V32.9h1.6z"/><path class="st8" d="M25.4 33.6h.7V35.2h-2.4V34.4H25.3v-.1-.3c.1-.1.1-.3.1-.4zM29.1 35.2s0-.1 0 0c0-.1 0-.1 0 0 .2-.1.3-.1.5-.1H29.9V35.9h-.8v-.5-.2zM37.1 35.8h-.7V35h.8V35.3c-.1.2-.1.3-.1.5 0-.1 0 0 0 0zM21.8 35.8v.7H20.2v-.1-.3-.4H21.5c.1.1.2.1.3.1zM34.2 35.8h2.2v.7H35.6v1.6H34.8v1.6h-.7v-.4-.4H33.3v.8h.8V40.5h.8V42H35.7V42.8h-2.4v-.4-.4h-1.6v-.7H33.3V40.5h-1.6v-.4-.4h-.8v-1.5h1.5v-.7H34.8v-.1-.3-.4H34v-.2-.2c.2-.3.2-.4.2-.5zM21.8 36.5h.7V38.1H20.1V38v-.3-.4h1.6c.1-.3.1-.5.1-.8z"/><path class="st8" d="M36.3 36.5h.7V37.3h-.8v-.1-.2c.1-.1.1-.3.1-.5 0 .1 0 .1 0 0zM25.4 37.3V38.1H24.6V38v-.7h.8zM28.3 37.3v.7H27.5v-.1-.7h.5c.2.1.3.1.3.1zM43.6 37.3V38.1h.8v2.2h-1.5v-.7h.8v-.1-.3-.4h-.8v-.4-.4-.4-.4h.4c.1.1.2.1.3.1zM28.3 38h.7V38.8h.8v.7H29v1.6h-.7v-.3-.4-.4-.5h-.8v-.7h.7c.1-.3.1-.6.1-.8z"/><path class="st8" d="M29.8 38h.7v.8h-.8c.1-.3.1-.6.1-.8zM35.6 38H36.4v.8H35.6v-.2-.2-.4zM25.4 38.7v5.6h-5.6v-.1-.3-.3-.4-.3-.4-.3-.3-.3-.4-.3-.3-.3-.4-.3-.3-.2-.4h5.6zm-1.5.7h-3.1v4h4v-.2-.5-.3-.2-.3-.2-.3-.2-.3-.2-.3-.2-.3-.2-.3h-.9z"/><path class="st8" d="M36.3 38.7H37.1V39.5H36.3v-.1-.3-.4zM39.2 38.8c.1 0 0-.1 0 0 .1-.1.1-.1 0 0 .2-.1.3-.1.5-.1H40v.8h-.8V39v-.2c0 .1 0 0 0 0zM27.6 39.4V40.2H26.8v-.1-.7h.8zM29.8 39.4h1.5v.7h-.8v.8H29.7v-.2-.2-.3-.3-.2c.1 0 .1-.1.1-.3 0 .1 0 .1 0 0zM34.9 39.4H35.7v.8H35c-.1-.3-.1-.5-.1-.8zM21.8 40.2H24.1V42.6H21.7v-.2-.4-.3-.2-.3-.2-.3-.2c.1-.2.1-.2.1-.3zM31.3 40.2h.7v.7h-.7v-.7zM35.6 40.2H36.4v.8H35.6v-.1-.4-.3zM28.3 40.9v.7h-.7v.7h-.7V43.1H26.1V43v-.3-.4-.4-.4h.7v-.4-.4H28.1c.1.2.2.2.2.2zM30.5 40.9h.7v.7h-.7v-.7z"/><path class="st8" d="M28.3 41.6h2.2v.8h.8v-.5-.3h.7v1.5h-1.5V43.9H29.7v-.1-.2-.4-.4-.5H28.9V43.9H28.1v-.1-.4-.5-.5-.3-.3c.2 0 .2-.1.2-.2zM33.4 42.3v.7h-.7V42.2h.4c.1.1.2.1.3.1zM32 43.1h.7V43.9H31.9v-.1-.4c.1-.1.1-.2.1-.3zM33.4 43.1H35.8V43.9H33.5v-.1-.4c-.1-.1-.1-.2-.1-.3zM43.6 43.2s0-.1 0 0c0-.1.1-.1 0 0 .2-.1.3-.1.5-.1H44.4V43.9H43.6v-.5-.2z"/></g></svg>