<svg version="1.1" id="Layer_1" xmlns="http://www.w3.org/2000/svg" x="0" y="0" viewBox="0 0 64 64" xml:space="preserve"><style>.st0{stroke:#171c28;stroke-linecap:round;stroke-linejoin:round;stroke-miterlimit:10}.st0,.st1{fill:#fff}.st2{fill:#171c28}.st7{stroke:#171c28;stroke-linecap:round;stroke-linejoin:round;stroke-miterlimit:10}.st7,.st8{fill:#bc0110}.st40{fill:none;stroke:#171c28;stroke-linecap:round;stroke-linejoin:round;stroke-miterlimit:10;stroke-dasharray:0,2}</style><g id="XMLID_1083_"><ellipse id="XMLID_1086_" class="st0" cx="15.4" cy="37.8" rx="9.9" ry="9.8"/><ellipse id="XMLID_1085_" class="st8" cx="15.4" cy="37.8" rx="7.8" ry="7.7"/><g id="XMLID_730_"><path id="XMLID_731_" class="st1" d="M15.3 33.2c.3 0 .5.2.5.5v.2c.6.1 1.2.3 1.7.6.2.1.3.3.3.5 0 .3-.3.6-.6.6-.1 0-.2 0-.3-.1-.4-.2-.8-.4-1.1-.5v2.1c1.7.4 2.4 1.1 2.4 2.2 0 1.2-.9 2-2.3 2.1v.7c0 .3-.2.5-.5.5s-.5-.2-.5-.5v-.7c-.8-.1-1.6-.4-2.2-.8-.2-.1-.3-.3-.3-.5 0-.3.3-.6.6-.6.1 0 .3 0 .4.1.5.4 1 .6 1.6.7v-2.1c-1.6-.4-2.3-1-2.3-2.2 0-1.2.9-2 2.3-2.1v-.2c-.2-.3.1-.5.3-.5zm-.4 3.7V35c-.7.1-1 .4-1 .9-.1.4.1.7 1 1zm.8 1.5v2c.7-.1 1.1-.4 1.1-.9s-.2-.8-1.1-1.1z"/></g></g><path id="XMLID_304_" class="st0" d="M55.2 29.3h3.3v10.9h-3.3z"/><path id="XMLID_280_" class="st0" d="M56.3 43.6V20.5H19.8v29.6h36.5v-2.5"/><path id="XMLID_300_" class="st0" d="M56.3 24.9H24.7c-2.4 0-4.9-1.8-4.9-4.2v-.1c0-2.4 2.4-4.4 4.9-4.4h31.6v8.7z"/><path id="XMLID_1115_" class="st0" d="M58.5 40.2H45.7c-2.2 0-3.7-1.4-3.7-3.5v.1c0-2 1.5-3.2 3.7-3.2h12.8v6.6z"/><path id="XMLID_278_" class="st40" d="M22.8 29.3h30.9"/><path id="XMLID_277_" class="st40" d="M22.8 46.8h30.9"/><ellipse id="XMLID_276_" class="st2" cx="45.3" cy="36.9" rx="1.4" ry="1.3"/><path id="XMLID_275_" class="st7" d="M32 17.8v-3.9h22.1v3.9"/><path id="XMLID_279_" class="st7" d="M24.2 22.1v-2.7H53v2.7"/></svg>